<svg id="Capa_1" enable-background="new 0 0 512.007 512.007" height="512" viewBox="0 0 512.007 512.007" width="512" xmlns="http://www.w3.org/2000/svg" xmlns:xlink="http://www.w3.org/1999/xlink"><linearGradient id="SVGID_1_" gradientUnits="userSpaceOnUse" x1="256.004" x2="256.004" y1="451.004" y2="61.004"><stop offset="0" stop-color="#fd5900"/><stop offset="1" stop-color="#ffde00"/></linearGradient><g><g><g><path d="m500.613 361.444-38.805-9.621c11.645-23.075 18.474-48.978 19.14-76.384l19.666-4.876c8.041-1.994 12.943-10.128 10.95-18.169-1.994-8.042-10.139-12.942-18.169-10.95l-14.271 3.538c-3.802-26.113-13.326-51.028-28.119-73.3v-95.678c0-8.284-6.716-15-15-15-33.972 0-65.914 12.533-90.896 35.477-14.407-3.637-29.202-5.477-44.104-5.477h-90c-14.901 0-29.699 1.84-44.105 5.477-24.98-22.944-56.922-35.477-90.895-35.477-8.284 0-15 6.716-15 15v95.679c-14.803 22.288-24.33 47.222-28.127 73.354l-14.209-3.579c-8.032-2.023-16.186 2.848-18.209 10.882-2.024 8.033 2.848 16.186 10.881 18.21l19.721 4.968c.682 27.564 7.595 53.607 19.374 76.779l-38.853 9.103c-8.065 1.89-13.072 9.96-11.183 18.026 1.88 8.027 9.921 13.081 18.026 11.183l48.801-11.434c32.88 43.594 85.091 71.829 143.778 71.829h90c58.938 0 111.351-28.474 144.205-72.387l48.185 11.947c8.041 1.994 16.175-2.909 18.169-10.95 1.992-8.042-2.91-16.176-10.951-18.17zm-68.824-17.064-52.176-12.936c-8.04-1.993-16.175 2.909-18.169 10.95-1.993 8.041 2.909 16.175 10.95 18.169l40.634 10.075c-27.495 30.88-67.524 50.366-112.025 50.366h-90c-44.065 0-83.751-19.102-111.218-49.457l35.822-8.393c8.065-1.89 13.072-9.96 11.183-18.026-1.89-8.066-9.961-13.072-18.026-11.183l-48.081 11.265c-10.614-18.567-17.372-39.608-19.182-62.025l68.933 17.364c8.049 2.027 16.19-2.864 18.209-10.882 2.024-8.033-2.848-16.186-10.881-18.21l-75.59-19.041c3.01-24.184 11.871-47.223 26.104-67.476 1.775-2.526 2.728-5.538 2.728-8.625v-84.244c23.014 3.309 44.186 14.222 60.743 31.546 3.919 4.101 9.817 5.639 15.239 3.977 14.27-4.373 29.079-6.591 44.018-6.591h90c14.938 0 29.748 2.218 44.018 6.591 5.422 1.663 11.32.122 15.239-3.977 16.559-17.324 37.729-28.237 60.743-31.546v84.245c0 3.087.952 6.099 2.728 8.625 14.2 20.206 23.051 43.185 26.082 67.309l-77.418 19.195c-8.041 1.994-12.943 10.128-10.95 18.169 1.994 8.041 10.129 12.944 18.169 10.95l70.912-17.581c-1.761 22.16-8.362 42.977-18.738 61.397zm-235.786-133.376c-8.284 0-15 6.716-15 15s6.716 15 15 15 15-6.716 15-15c0-8.285-6.715-15-15-15zm100.607 85.606c5.858-5.858 5.858-15.355 0-21.213-5.857-5.858-15.355-5.858-21.213 0l-19.394 19.394-19.394-19.394c-5.857-5.858-15.355-5.858-21.213 0s-5.858 15.355 0 21.213l25.606 25.606v23.787c0 8.271-6.729 15-15 15-8.284 0-15 6.716-15 15s6.716 15 15 15c11.517 0 22.032-4.354 30-11.495 7.968 7.142 18.483 11.495 30 11.495 8.284 0 15-6.716 15-15s-6.716-15-15-15c-8.271 0-15-6.729-15-15v-23.787zm19.393-85.606c-8.284 0-15 6.716-15 15s6.716 15 15 15 15-6.716 15-15c0-8.285-6.715-15-15-15z" fill="url(#SVGID_1_)"/></g></g></g></svg>