<svg id="Capa_1" enable-background="new 0 0 512 512" height="512" viewBox="0 0 512 512" width="512" xmlns="http://www.w3.org/2000/svg" xmlns:xlink="http://www.w3.org/1999/xlink"><linearGradient id="SVGID_1_" gradientUnits="userSpaceOnUse" x1="256" x2="256" y1="512" y2="0"><stop offset="0" stop-color="#5558ff"/><stop offset="1" stop-color="#00c0ff"/></linearGradient><g><g><g><path d="m196 300c-8.284 0-15 6.716-15 15s6.716 15 15 15 15-6.716 15-15-6.716-15-15-15zm120-150h121c41.355 0 75-33.645 75-75 0-8.284-6.716-15-15-15s-15 6.716-15 15c0 24.813-20.187 45-45 45h-61.041c6.816-9.059 11.612-19.709 13.761-31.28 34.822-6.467 61.28-37.053 61.28-73.72 0-8.284-6.716-15-15-15s-15 6.716-15 15c0 19.556-12.539 36.239-30 42.43v-12.43c0-8.284-6.716-15-15-15s-15 6.716-15 15v30c0 24.813-20.187 45-45 45s-45 20.187-45 45v15h-30v-15c0-24.813-20.187-45-45-45s-45-20.187-45-45v-30c0-8.284-6.716-15-15-15s-15 6.716-15 15v12.43c-17.461-6.191-30-22.874-30-42.43 0-8.284-6.716-15-15-15s-15 6.716-15 15c0 36.667 26.458 67.253 61.28 73.72 2.149 11.571 6.945 22.222 13.761 31.28h-61.041c-24.813 0-45-20.187-45-45 0-8.284-6.716-15-15-15s-15 6.716-15 15c0 41.355 33.645 75 75 75h121c8.271 0 15 6.729 15 15v16.073c-22.884 3.273-43.945 13.961-60.034 30.392-19.566-19.968-46.436-31.465-74.966-31.465h-30c-8.284 0-15 6.716-15 15 0 53.098 39.617 97.118 90.846 104.05 2.903 25.451 12.814 53.965 22.449 81.685 10.671 30.699 21.705 62.444 21.705 86.265 0 24.813 20.187 45 45 45h90c24.813 0 45-20.187 45-45 0-25.76 11.12-57.019 21.875-87.249 9.608-27.009 19.493-54.795 22.324-80.707 51.209-6.951 90.801-50.96 90.801-104.044 0-8.284-6.716-15-15-15h-30c-28.529 0-55.4 11.497-74.966 31.465-16.089-16.43-37.151-27.118-60.034-30.392v-16.073c0-8.271 6.729-15 15-15zm32.531 93.493c2.778 4.183 7.465 6.699 12.487 6.701h.008c5.019 0 9.706-2.51 12.487-6.688 13.965-20.981 37.325-33.506 62.487-33.506h13.493c-6.969 34.191-37.274 60-73.493 60-8.284 0-15 6.716-15 15 0 24.567-10.875 55.135-21.391 84.696-11.607 32.628-23.609 66.367-23.609 97.304 0 8.271-6.729 15-15 15h-30v-40.787l25.606-25.606c5.858-5.858 5.858-15.355 0-21.213-5.857-5.858-15.355-5.858-21.213 0l-19.393 19.393-19.394-19.393c-5.857-5.858-15.355-5.858-21.213 0s-5.858 15.355 0 21.213l25.607 25.606v40.787h-30c-8.271 0-15-6.729-15-15 0-28.886-11.879-63.063-23.368-96.115-10.635-30.596-21.632-62.235-21.632-85.885 0-8.284-6.716-15-15-15-36.219 0-66.524-25.809-73.493-60h13.493c25.163 0 48.522 12.525 62.487 33.505 2.781 4.179 7.468 6.688 12.487 6.688h.008c5.022-.002 9.709-2.518 12.487-6.701 13.928-20.971 37.304-33.492 62.531-33.492h60c25.227 0 48.603 12.521 62.531 33.493zm-32.531 86.507c8.284 0 15-6.716 15-15s-6.716-15-15-15-15 6.716-15 15 6.716 15 15 15z" fill="url(#SVGID_1_)"/></g></g></g></svg>