<svg id="Capa_1" enable-background="new 0 0 512 512" height="512" viewBox="0 0 512 512" width="512" xmlns="http://www.w3.org/2000/svg" xmlns:xlink="http://www.w3.org/1999/xlink"><linearGradient id="SVGID_1_" gradientUnits="userSpaceOnUse" x1="256" x2="256" y1="491.493" y2="20.507"><stop offset="0" stop-color="#5558ff"/><stop offset="1" stop-color="#00c0ff"/></linearGradient><g><g><g><path d="m196 221.493c-8.284 0-15 6.716-15 15s6.716 15 15 15 15-6.716 15-15-6.716-15-15-15zm165.025-197.139c-20.511-7.274-42.622-4.137-60.659 8.605-13.603 9.609-23.145 23.678-27.193 39.422-5.671-.584-11.401-.888-17.174-.888-5.919 0-11.661.279-17.188.834-4.056-15.721-13.591-29.769-27.179-39.368-18.039-12.742-40.149-15.879-60.659-8.605-90.301 32.022-150.973 117.274-150.973 212.139v6.511c0 18.307 7.35 35.553 20.696 48.563 13.181 12.849 30.51 19.926 48.793 19.926h21.511v15c0 90.981 74.019 165 165 165s165-74.019 165-165v-15h21.511c18.284 0 35.612-7.076 48.793-19.926 13.346-13.01 20.696-30.257 20.696-48.563v-6.511c0-94.865-60.672-180.117-150.975-212.139zm-270.025 257.139h-21.511c-21.405 0-39.489-17.626-39.489-38.489v-6.511c0-82.189 52.646-156.079 131.001-183.865 11.205-3.974 23.351-2.211 33.324 4.834 7.253 5.123 12.469 12.468 14.982 20.724-69.329 20.36-118.307 84.809-118.307 158.307zm300 45c0 74.439-60.561 135-135 135s-135-60.561-135-135v-90c0-73.183 59.18-135 135-135 74.749 0 135 60.224 135 135zm91-83.489c0 20.863-18.084 38.489-39.489 38.489h-21.511v-45c0-43.901-17.095-85.363-48.136-116.749-.039-.039-.078-.078-.117-.117-19.936-19.717-43.941-33.796-70.051-41.452 2.515-8.252 7.729-15.591 14.979-20.713 9.974-7.045 22.119-8.807 33.324-4.834 78.355 27.786 131.001 101.676 131.001 183.865zm-196 158.489c-8.271 0-15-6.729-15-15v-23.787l25.606-25.606c5.858-5.858 5.858-15.355 0-21.213-5.857-5.858-15.355-5.858-21.213 0l-19.393 19.393-19.394-19.394c-5.857-5.858-15.355-5.858-21.213 0s-5.858 15.355 0 21.213l25.607 25.607v23.787c0 8.271-6.729 15-15 15-8.284 0-15 6.716-15 15s6.716 15 15 15c11.517 0 22.032-4.354 30-11.495 7.968 7.142 18.483 11.495 30 11.495 8.284 0 15-6.716 15-15s-6.716-15-15-15zm30-180c-8.284 0-15 6.716-15 15s6.716 15 15 15 15-6.716 15-15-6.716-15-15-15z" fill="url(#SVGID_1_)"/></g></g></g></svg>