<?xml version="1.0"?>
<svg xmlns="http://www.w3.org/2000/svg" viewBox="0 0 512 512" width="512" height="512"><g id="_03-fire" data-name="03-fire"><g id="filled_outline" data-name="filled outline"><path d="M507.079,455.061a43.715,43.715,0,0,0-18.939-27.846c-.059-.038-.12-.072-.179-.111L378.328,355.141c.84-.75,1.676-1.5,2.5-2.275,27.169-25.4,39.582-56.15,46.556-77.071,13.912-41.735,12.529-90-4-139.59-12.365-37.1-28.71-61.827-29.4-62.861a12,12,0,0,0-21.626,3.745c-7.071,28.287-16.645,36.751-21.723,39.279a13.717,13.717,0,0,1-3,1.092C344.2,69.1,317.389,41.17,294.656,26.016A148.864,148.864,0,0,0,241.973,4.163a12,12,0,0,0-13.81,13.81c10.1,60.6.192,85.726-5.979,94.932A44.535,44.535,0,0,1,204,79.956a11.826,11.826,0,0,0-5.6-10.212,11.994,11.994,0,0,0-11.763-.477c-2.836,1.418-69.658,35.892-86.47,136.76-4.284,25.7-3.328,50.746,2.842,74.438a154.418,154.418,0,0,0,31.648,61.473q3.458,4.08,7.167,7.861L24.026,427.113c-.055.035-.111.067-.165.1a44,44,0,0,0,48.285,73.57c.038-.025.073-.052.11-.076L212,409v55a44,44,0,0,0,88,0V409l139.736,91.7c.04.026.077.055.118.082a44,44,0,0,0,67.225-45.724Zm-64.885-29.29a43.963,43.963,0,0,0-21.92,33.454L313.441,389.112a162.342,162.342,0,0,0,44.4-18.712Zm-357.4,14.086a43.8,43.8,0,0,0-14.981-14.086l90.855-59.632a151.577,151.577,0,0,0,40.765,21.091l-109.7,72A43.709,43.709,0,0,0,84.789,439.857ZM193.625,343.42c-15.043-20.871-17.259-50.57-6.241-83.625,5.934-17.8,14.147-30.641,21.741-39.58,2.974,13.023,11.774,23.651,25.508,30.518a12.009,12.009,0,0,0,8.278.909c1.172-.293,28.869-7.488,42.615-34.371,5.206-10.181,7.686-21.606,7.443-34.193,27.758,32.524,63.341,86.045,47.647,133.127C313.987,382.974,228.6,388.23,193.625,343.42ZM256,396q10.268,0,20-.754v29.582a43.839,43.839,0,0,0-40,0V394.879A179.129,179.129,0,0,0,256,396ZM123.837,209.973c6.175-37.049,20.4-68.358,42.288-93.056a144.075,144.075,0,0,1,17.782-16.976c4.481,12.639,14.1,28.476,34.726,38.792a12,12,0,0,0,10.734,0c2.039-1.02,12.583-7.091,19.869-26.52,7.389-19.7,9.141-46.46,5.24-79.706a126.658,126.658,0,0,1,26.868,13.477C309.648,64.854,324,92.448,324,128a12,12,0,0,0,6.634,10.733,35.414,35.414,0,0,0,29.608-.358c10.617-4.884,19.4-14.627,26.264-29.08a285.471,285.471,0,0,1,14.319,35.13c10.235,30.954,19.2,77.555,3.791,123.78-8.379,25.137-22.08,54.945-50.779,76.154a99.98,99.98,0,0,0,9.547-20.564c29.427-88.279-78.839-184.745-83.462-188.809a12,12,0,0,0-19.064,13.471c9.526,23.814,10.679,43.208,3.425,57.64-6.1,12.133-17.1,18.22-23.072,20.757-6.083-4.13-9.032-9.375-9.2-16.228a32.846,32.846,0,0,1,2.725-13.259h0a12,12,0,0,0-16.1-16.1c-1.487.744-36.645,18.822-54.017,70.938-10.423,31.267-10.79,60.632-1.41,84.953a126.137,126.137,0,0,1-10.24-10.733C126.812,295.55,116.466,254.194,123.837,209.973Zm-79.9,273.61c-10.571-1.966-17.92-13.165-15.52-23.646,1.665-9.063,10.478-16.116,19.553-15.931a20,20,0,1,1-4.033,39.577ZM256,484a20,20,0,1,1,20-20A20.023,20.023,0,0,1,256,484Zm224.717-9.026a20.022,20.022,0,0,1-27.668,5.762l-.025-.018-.051-.034a20,20,0,0,1,6.961-36.267c10.434-2.408,21.7,4.955,23.645,15.52A19.867,19.867,0,0,1,480.717,474.974Z"/></g></g></svg>
