<svg id="Capa_1" enable-background="new 0 0 512.379 512.379" height="512" viewBox="0 0 512.379 512.379" width="512" xmlns="http://www.w3.org/2000/svg" xmlns:xlink="http://www.w3.org/1999/xlink"><linearGradient id="SVGID_1_" gradientUnits="userSpaceOnUse" x1="256.19" x2="256.19" y1="481.19" y2="31.19"><stop offset="0" stop-color="#5558ff"/><stop offset="1" stop-color="#00c0ff"/></linearGradient><g><g><g><path d="m346.19 211.19c8.284 0 15-6.716 15-15s-6.716-15-15-15-15 6.716-15 15 6.716 15 15 15zm135.933 39.482c-.647-26.609-5.959-52.089-15.148-75.658 28.015-12.144 45.216-39.502 45.216-68.825 0-41.355-33.645-75-75-75-25.471 0-48.789 12.944-62.475 33.51-34.482-21.233-75.088-33.51-118.525-33.51s-84.044 12.277-118.526 33.511c-13.686-20.566-37.003-33.51-62.475-33.51-41.355 0-75 33.645-75 75 0 29.368 17.244 56.7 45.216 68.825-9.189 23.569-14.501 49.048-15.148 75.658-32.974 41.281-39.756 101.977-16.601 152.977 21.227 46.752 64.598 77.54 121.533 77.54h242c56.845 0 100.267-30.7 121.53-77.536 23.157-51.003 16.377-111.7-16.597-152.982zm-44.933-189.482c24.813 0 45 20.187 45 45 0 18.757-11.295 34.966-27.968 41.698-14.008-25.285-32.753-47.616-55.044-65.796 8.133-12.802 22.399-20.902 38.012-20.902zm-166 .566c96.117 7.271 173.081 83.818 180.426 179.434h-75.426c-57.897 0-105-47.103-105-105zm-241 44.434c0-24.813 20.187-45 45-45 15.613 0 29.879 8.1 38.012 20.901-22.291 18.181-41.037 40.511-55.044 65.796-16.673-6.731-27.968-22.941-27.968-41.697zm441.214 285.062c-17.294 38.092-51.634 59.938-94.214 59.938h-242c-42.58 0-76.921-21.848-94.217-59.942-18.904-41.638-12.527-93.116 15.51-125.185 2.39-2.734 3.707-6.242 3.707-9.873 0-102.503 79.906-186.787 181-194.434v74.434c0 74.439 60.561 135 135 135h83.859c24.461 32.24 29.286 80.57 11.355 120.062zm-155.214-60.062h-30c-6.423 0-11.9-4.066-14.034-9.753l24.641-24.641c5.858-5.858 5.858-15.355 0-21.213-5.857-5.858-15.355-5.858-21.213 0l-19.394 19.394-19.394-19.394c-5.857-5.858-15.355-5.858-21.213 0s-5.858 15.355 0 21.213l24.641 24.641c-2.134 5.687-7.611 9.753-14.034 9.753h-30c-8.284 0-15 6.716-15 15s6.716 15 15 15h15v45c0 8.284 6.716 15 15 15h60c8.284 0 15-6.716 15-15v-45h15c8.284 0 15-6.716 15-15s-6.716-15-15-15zm-45 60h-30v-32.58c5.587-1.982 10.67-5.034 15-8.915 4.33 3.881 9.413 6.933 15 8.915zm-105-210c-8.284 0-15 6.716-15 15s6.716 15 15 15 15-6.716 15-15c0-8.285-6.716-15-15-15z" fill="url(#SVGID_1_)"/></g></g></g></svg>