<svg id="Capa_1" enable-background="new 0 0 512 512" height="512" viewBox="0 0 512 512" width="512" xmlns="http://www.w3.org/2000/svg" xmlns:xlink="http://www.w3.org/1999/xlink"><linearGradient id="SVGID_1_" gradientUnits="userSpaceOnUse" x1="256" x2="256" y1="512" y2="0"><stop offset="0" stop-color="#fd3a84"/><stop offset="1" stop-color="#ffa68d"/></linearGradient><g><g><g><path d="m196 332c-8.284 0-15 6.716-15 15s6.716 15 15 15 15-6.716 15-15-6.716-15-15-15zm316-75c0-4.036-1.626-7.901-4.511-10.723l-25.737-25.174 15.895-31.511c3.709-7.354.795-16.324-6.528-20.093l-31.535-16.229 5.406-35.052c1.255-8.14-4.288-15.77-12.418-17.092l-35.006-5.69-5.69-35.006c-1.321-8.13-8.95-13.668-17.092-12.418l-35.052 5.406-16.229-31.535c-3.769-7.323-12.74-10.236-20.093-6.528l-31.359 15.818-25.175-26.504c-2.832-2.981-6.764-4.669-10.876-4.669s-8.044 1.688-10.876 4.669l-25.173 26.502-31.359-15.818c-7.352-3.709-16.323-.794-20.093 6.528l-16.229 31.536-35.052-5.406c-8.142-1.261-15.771 4.288-17.092 12.418l-5.69 35.006-35.006 5.69c-8.13 1.321-13.673 8.952-12.418 17.092l5.406 35.052-31.535 16.229c-7.324 3.769-10.238 12.739-6.528 20.093l15.895 31.511-25.739 25.175c-2.885 2.822-4.511 6.687-4.511 10.723s1.626 7.901 4.511 10.723l25.737 25.174-15.895 31.511c-2.109 4.181-2.145 9.106-.096 13.317 2.049 4.21 5.946 7.223 10.537 8.145l105.81 21.238c4.357 10.883 10.143 21.233 17.338 30.826 7.077 9.436 63.243 84.317 72.043 96.049 8.462 11.282 21.925 18.017 36.015 18.017 14.089 0 27.552-6.735 36.014-18.016 9.706-12.94 64.293-85.717 72.043-96.049 7.195-9.593 12.98-19.943 17.338-30.826l105.81-21.238c4.591-.921 8.488-3.934 10.537-8.145 2.048-4.211 2.013-9.137-.096-13.317l-15.895-31.511 25.737-25.174c2.886-2.823 4.512-6.688 4.512-10.724zm-243.985 218.983c-6.019 8.026-18.006 8.031-24.03 0l-12.523-16.695c7.238-4.706 15.751-7.288 24.538-7.288s17.3 2.582 24.537 7.288zm96.653-191.916c-4.202 3.417-6.331 8.907-5.291 14.424 1.077 6.065 1.623 12.291 1.623 18.509 0 22.907-7.295 44.74-20.941 62.934l-41.51 55.341c-12.41-8.547-27.224-13.275-42.549-13.275-15.326 0-30.139 4.728-42.548 13.275l-41.51-55.341c-14.12-18.826-20.942-40.851-20.942-62.934 0-6.263.554-12.534 1.646-18.638.997-5.567-1.217-10.967-5.317-14.297-12.867-10.986-21.51-25.806-24.821-42.065h13.492c9.575 0 18.887 1.773 27.686 5.271 5.587 2.475 12.36 1.361 16.856-3.286l.005-.005c19.962-20.621 46.76-31.98 75.453-31.98s55.489 11.357 75.451 31.979c.001.001.005.005.007.007 4.498 4.647 11.272 5.761 16.859 3.285 8.799-3.497 18.109-5.27 27.683-5.27h13.491c-3.31 16.259-11.956 31.081-24.823 42.066zm85.354 12.539 11.968 23.727-72.167 14.486c.768-5.863 1.177-11.808 1.177-17.819 0-5.215-.3-10.439-.896-15.61 19.732-19.647 30.896-46.31 30.896-74.39 0-8.284-6.716-15-15-15h-30c-10.125 0-20.053 1.423-29.628 4.239-4.51-4.653-38.623-34.239-90.372-34.239-51.747 0-85.86 29.585-90.372 34.239-9.575-2.816-19.503-4.239-29.628-4.239h-30c-8.284 0-15 6.716-15 15 0 28.08 11.164 54.743 30.896 74.39-.596 5.17-.896 10.394-.896 15.61 0 6.011.409 11.956 1.177 17.819l-72.167-14.486 11.968-23.727c2.944-5.836 1.77-12.908-2.904-17.479l-22.622-22.127 22.623-22.128c4.673-4.571 5.848-11.642 2.904-17.479l-14.139-28.028 27.913-14.365c5.738-2.953 8.944-9.246 7.96-15.624l-4.785-31.026 30.986-5.037c6.37-1.036 11.364-6.029 12.399-12.399l5.037-30.986 31.026 4.785c6.38.982 12.67-2.223 15.624-7.96l14.365-27.913 28.029 14.138c5.909 2.98 13.073 1.737 17.631-3.062l21.975-23.136 21.975 23.136c4.558 4.798 11.722 6.042 17.631 3.062l28.029-14.138 14.365 27.913c2.954 5.738 9.25 8.943 15.624 7.96l31.026-4.785 5.037 30.986c1.036 6.37 6.029 11.363 12.399 12.399l30.985 5.037-4.785 31.026c-.984 6.378 2.223 12.67 7.96 15.624l27.913 14.365-14.138 28.029c-2.944 5.836-1.77 12.908 2.904 17.479l22.623 22.127-22.623 22.128c-4.673 4.571-5.847 11.642-2.903 17.478zm-134.022 35.394c-8.284 0-15 6.716-15 15s6.716 15 15 15 15-6.716 15-15-6.716-15-15-15z" fill="url(#SVGID_1_)"/></g></g></g></svg>