<svg id="Capa_1" enable-background="new 0 0 512.094 512.094" height="512" viewBox="0 0 512.094 512.094" width="512" xmlns="http://www.w3.org/2000/svg" xmlns:xlink="http://www.w3.org/1999/xlink"><linearGradient id="SVGID_1_" gradientUnits="userSpaceOnUse" x1="256.047" x2="256.047" y1="512.094" y2="0"><stop offset="0" stop-color="#fd5900"/><stop offset="1" stop-color="#ffde00"/></linearGradient><g><g><g><path d="m166.047 212c-8.284 0-15 6.716-15 15s6.716 15 15 15 15-6.716 15-15-6.716-15-15-15zm312.568-113.898c20.255-23.049 32.123-52.333 33.418-82.458.355-8.276-6.065-15.274-14.342-15.63-8.265-.354-15.274 6.065-15.631 14.342-1.002 23.309-10.229 46.017-25.976 63.937-10.554 11.998-25.144 14.341-46.415 14.331-41.815-39.145-96.064-60.624-153.622-60.624s-111.807 21.479-153.624 60.625c-21.269.011-35.859-2.332-46.409-14.326-15.752-17.926-24.979-40.634-25.98-63.943-.356-8.276-7.336-14.698-15.632-14.342-8.276.356-14.697 7.354-14.341 15.631 1.295 30.124 13.163 59.408 33.423 82.463 12.388 14.083 27.35 20.269 43.323 22.847-29.68 38.936-45.76 86.251-45.76 136.045v180c0 8.284 6.716 15 15 15 73.733 0 124.085 15.176 153.341 27.908 31.543 13.727 45.973 27.622 46.053 27.699 2.801 2.868 6.54 4.463 10.549 4.487h.087c3.977 0 7.701-1.611 10.515-4.425.143-.139 14.572-14.034 46.115-27.761 29.255-12.732 79.606-27.908 153.34-27.908 8.284 0 15-6.716 15-15v-180c0-49.794-16.081-97.11-45.761-136.046 15.975-2.579 30.939-8.766 43.329-22.852zm-222.568-36.102c38.127 0 73.726 11.009 103.805 30h-43.805c-18.639 0-36.538 6.938-50.4 19.536-3.556 3.232-6.76 6.767-9.599 10.543-2.839-3.776-6.043-7.311-9.599-10.543-13.864-12.598-31.763-19.536-50.402-19.536h-43.805c30.079-18.991 65.678-30 103.805-30zm195 195v165.203c-111.374 2.962-172.158 38.427-195 55.372-22.842-16.944-83.626-52.41-195-55.372v-165.203c0-52.129 20.562-99.544 54-134.566 6.962-.19 13.992-.434 21-.434h60c22.859 0 42.526 17.78 44.773 40.478.767 7.742 7.289 13.523 14.909 13.523.105 0 .212-.013.318-.016.105.002.213.016.318.016 7.619 0 14.144-5.782 14.909-13.523 2.247-22.698 21.914-40.478 44.773-40.478 0 0 73.979.241 81 .434 33.438 35.021 54 82.437 54 134.566zm-120-30c0 8.284 6.716 15 15 15s15-6.716 15-15-6.716-15-15-15-15 6.716-15 15zm-60 0c0 41.355 33.645 75 75 75s75-33.645 75-75-33.645-75-75-75-75 33.645-75 75zm120 0c0 24.813-20.187 45-45 45s-45-20.187-45-45 20.187-45 45-45 45 20.187 45 45zm-68.292 106.583-60-30c-4.223-2.111-9.193-2.111-13.416 0l-60 30c-4.313 2.156-7.326 6.254-8.099 11.014s.791 9.6 4.2 13.009l60 60c2.929 2.929 6.768 4.394 10.606 4.394s7.678-1.464 10.606-4.394l60-60c3.409-3.409 4.973-8.25 4.2-13.009s-3.785-8.857-8.097-11.014zm-66.708 52.204-34.678-34.677 34.678-17.339 34.678 17.339zm-15-158.787c0-41.355-33.645-75-75-75s-75 33.645-75 75 33.645 75 75 75 75-33.645 75-75zm-75 45c-24.813 0-45-20.187-45-45s20.187-45 45-45 45 20.187 45 45-20.187 45-45 45z" fill="url(#SVGID_1_)"/></g></g></g></svg>