<svg id="Capa_1" enable-background="new 0 0 512.048 512.048" height="512" viewBox="0 0 512.048 512.048" width="512" xmlns="http://www.w3.org/2000/svg"><g id="XMLID_46_"><g id="XMLID_145_"><path id="XMLID_161_" d="m510.861 279.777c.064-.333.112-.673.142-1.019.662-7.501.997-15.15.997-22.734 0-68.38-26.629-132.667-74.98-181.02-48.353-48.351-112.64-74.98-181.02-74.98s-132.667 26.629-181.02 74.981c-48.351 48.352-74.98 112.639-74.98 181.019 0 52.118 15.567 102.271 45.021 145.035 1.939 2.816 5.064 4.329 8.244 4.329 1.955 0 3.932-.572 5.663-1.766 4.549-3.132 5.696-9.359 2.563-13.907-27.143-39.413-41.491-85.642-41.491-133.691 0-15.21 1.464-30.082 4.226-44.499l3.615 7.811c6.237 13.479 19.865 22.189 34.718 22.189h19.062l35.98 27.45c1.742 1.33 3.874 2.05 6.065 2.05h16.334v8.721l-8.316 7.94c-9.621 9.183-11.605 23.588-4.824 35.029l20.875 35.228c3.646 6.152 9.427 10.672 16.274 12.726 3.584 1.075 5.991 4.311 5.991 8.053v47.984c0 9.385 3.943 18.43 10.82 24.815 2.815 2.615 4.43 6.318 4.43 10.161v19.563c-22.247-6.978-43.432-17.274-62.944-30.712-4.548-3.133-10.774-1.986-13.907 2.564-3.133 4.548-1.985 10.775 2.563 13.907 42.766 29.454 92.92 45.023 145.038 45.023 37.42 0 73.357-7.856 106.948-23.349l13.359 19.083c1.871 2.674 4.93 4.266 8.192 4.266s6.321-1.592 8.192-4.266l96.257-137.504c19.052-27.216 26.159-59.567 21.913-90.48zm-201.024-86.014c-7.782-12.235-8.322-28.134-.799-41.026l22.713-38.924c3.05-5.226 8.702-8.472 14.752-8.472h14.647c7.013 0 13.233 4.204 15.849 10.711.875 2.18 2.49 3.981 4.561 5.089l13.672 7.315c12.744 6.818 28.21 5.311 39.399-3.845l10.959-8.968c23.422 31.55 39.17 69.119 44.451 109.928-4.463-6.564-9.59-12.796-15.384-18.59-24.081-24.081-56.1-37.343-90.155-37.343-27.191.001-53.076 8.463-74.665 24.125zm123.16-93.658-11.033 9.029c-4.911 4.02-11.703 4.684-17.298 1.688l-10.739-5.746c-6.376-12.104-18.858-19.734-32.777-19.734h-14.647c-13.135 0-25.406 7.047-32.025 18.392l-22.713 38.924c-11.818 20.253-10.429 45.428 2.756 64.155-.058.058-.118.113-.176.171-21.67 21.67-34.089 49.413-36.817 78.062l-.165-.059c-3.453-19.537-20.517-34.608-40.983-34.874-3.086-.04-6.075-.708-8.886-1.985l-10.75-4.887c-15.832-7.196-34.056-4.02-46.459 7.783h-21.936l-29.387-35.236c-2.897-3.474-4.493-7.878-4.493-12.401 0-10.677 8.687-19.362 19.363-19.362 6.565 0 12.804 2.488 17.565 7.007l9.221 8.748c2.899 2.75 7.157 3.512 10.831 1.933 3.672-1.578 6.052-5.19 6.052-9.188v-18.111l61.278-56.371c4.218-3.881 9.697-6.018 15.43-6.018 23.596 0 42.792-19.196 42.792-42.792v-48.264c61.936 5.488 117.068 34.998 155.996 79.136zm-387.006 110.83-13.799-29.819c31.384-93.524 119.85-161.092 223.808-161.092.335 0 .666.011 1 .013v49.195c0 12.567-10.225 22.792-22.792 22.792-10.762 0-21.051 4.013-28.971 11.299l-64.508 59.342c-2.059 1.894-3.23 4.562-3.23 7.359v.626c-7.072-4.316-15.219-6.626-23.669-6.626-21.705 0-39.363 17.658-39.363 39.362 0 6.342 1.544 12.567 4.433 18.138h-16.341c-7.088 0-13.591-4.156-16.568-10.589zm123.764 140.575c-2.026-.608-3.736-1.945-4.815-3.766l-20.875-35.227c-2.006-3.387-1.419-7.649 1.429-10.367l11.412-10.894c1.977-1.887 3.095-4.501 3.095-7.233v-14.056l2.719-3.06c6.495-7.314 16.842-9.508 25.748-5.461l10.75 4.887c5.346 2.43 11.032 3.7 16.902 3.776 12.065.159 21.88 10.103 21.88 22.169 0 4.235 2.668 8.011 6.659 9.426l12.615 4.471c1.592 22.385 9.109 44.555 22.777 64.08l2.639 3.77h-6.19c-10.477 0-19 8.523-19 19v13.174c0 2.948-1.068 5.794-3.009 8.013l-22.266 25.465-26.976 29.248v-7.243c0-9.385-3.943-18.43-10.82-24.815-2.815-2.615-4.43-6.318-4.43-10.161v-47.984c.001-12.644-8.134-23.579-20.244-27.212zm86.245 140.514c-14.028 0-27.898-1.232-41.492-3.64l32.51-35.247c.061-.065.119-.132.178-.198l22.353-25.564c5.128-5.865 7.952-13.386 7.952-21.177v-12.174h19.19l54.577 77.964c-30.003 13.287-61.993 20.036-95.268 20.036zm216.565-133.238-88.065 125.801-88.065-125.801c-29.971-42.812-24.902-100.708 12.052-137.661 20.304-20.304 47.299-31.485 76.013-31.485s55.709 11.182 76.013 31.486c36.954 36.952 42.022 94.846 12.052 137.66z"/><path id="XMLID_169_" d="m384.5 233.024c-35.353 0-64.113 28.761-64.113 64.113 0 35.353 28.761 64.114 64.113 64.114s64.113-28.762 64.113-64.114-28.76-64.113-64.113-64.113zm0 108.228c-24.324 0-44.113-19.79-44.113-44.114s19.789-44.113 44.113-44.113 44.113 19.789 44.113 44.113-19.789 44.114-44.113 44.114z"/><path id="XMLID_170_" d="m82.069 419.954c-2.63 0-5.21 1.07-7.069 2.93-1.86 1.86-2.931 4.44-2.931 7.07s1.07 5.21 2.931 7.07c1.859 1.859 4.439 2.93 7.069 2.93 2.631 0 5.211-1.07 7.07-2.93 1.86-1.86 2.93-4.44 2.93-7.07s-1.069-5.21-2.93-7.07c-1.859-1.86-4.439-2.93-7.07-2.93z"/></g></g></svg>